<?xml version="1.0" encoding="utf-8" ?>
<svg baseProfile="full" height="210.0mm" version="1.1" width="297.0mm" xmlns="http://www.w3.org/2000/svg" xmlns:ev="http://www.w3.org/2001/xml-events" xmlns:xlink="http://www.w3.org/1999/xlink"><defs /><line stroke="rgb(0%,0%,0%)" stroke-width=".1mm" x1="274.5mm" x2="279.5mm" y1="14.0mm" y2="14.0mm" /><line stroke="rgb(0%,0%,0%)" stroke-width=".1mm" x1="277.0mm" x2="277.0mm" y1="11.5mm" y2="16.5mm" /><line stroke="rgb(0%,0%,0%)" stroke-width=".1mm" x1="274.5mm" x2="279.5mm" y1="84.0mm" y2="84.0mm" /><line stroke="rgb(0%,0%,0%)" stroke-width=".1mm" x1="277.0mm" x2="277.0mm" y1="81.5mm" y2="86.5mm" /><line stroke="rgb(0%,0%,0%)" stroke-width=".1mm" x1="17.5mm" x2="22.5mm" y1="14.0mm" y2="14.0mm" /><line stroke="rgb(0%,0%,0%)" stroke-width=".1mm" x1="20.0mm" x2="20.0mm" y1="11.5mm" y2="16.5mm" /><line stroke="rgb(0%,0%,0%)" stroke-width=".1mm" x1="17.5mm" x2="22.5mm" y1="84.0mm" y2="84.0mm" /><line stroke="rgb(0%,0%,0%)" stroke-width=".1mm" x1="20.0mm" x2="20.0mm" y1="81.5mm" y2="86.5mm" /><text fill="blue" font-size="1.0mm" x="40.0mm" y="84.0mm">STAVE 0 - Mozart 331</text><line stroke="rgb(0%,0%,0%)" stroke-width=".1mm" x1="20.0mm" x2="277.0mm" y1="20.0mm" y2="20.0mm" /><text fill="red" font-size="1.0mm" x="18.0mm" y="20.5mm">E6</text><line stroke="rgb(0%,0%,0%)" stroke-width=".1mm" x1="20.0mm" x2="277.0mm" y1="22.0mm" y2="22.0mm" /><text fill="red" font-size="1.0mm" x="18.0mm" y="22.5mm">D6</text><line stroke="rgb(0%,0%,0%)" stroke-width=".1mm" x1="20.0mm" x2="277.0mm" y1="24.0mm" y2="24.0mm" /><text fill="red" font-size="1.0mm" x="18.0mm" y="24.5mm">C6</text><line stroke="rgb(0%,0%,0%)" stroke-width=".1mm" x1="20.0mm" x2="277.0mm" y1="26.0mm" y2="26.0mm" /><text fill="red" font-size="1.0mm" x="18.0mm" y="26.5mm">B5</text><line stroke="rgb(0%,0%,0%)" stroke-width=".1mm" x1="20.0mm" x2="277.0mm" y1="28.0mm" y2="28.0mm" /><text fill="red" font-size="1.0mm" x="18.0mm" y="28.5mm">A#5</text><line stroke="rgb(0%,0%,0%)" stroke-width=".1mm" x1="20.0mm" x2="277.0mm" y1="30.0mm" y2="30.0mm" /><text fill="red" font-size="1.0mm" x="18.0mm" y="30.5mm">A5</text><line stroke="rgb(0%,0%,0%)" stroke-width=".1mm" x1="20.0mm" x2="277.0mm" y1="32.0mm" y2="32.0mm" /><text fill="red" font-size="1.0mm" x="18.0mm" y="32.5mm">G#5</text><line stroke="rgb(0%,0%,0%)" stroke-width=".1mm" x1="20.0mm" x2="277.0mm" y1="34.0mm" y2="34.0mm" /><text fill="red" font-size="1.0mm" x="18.0mm" y="34.5mm">G5</text><line stroke="rgb(0%,0%,0%)" stroke-width=".1mm" x1="20.0mm" x2="277.0mm" y1="36.0mm" y2="36.0mm" /><text fill="red" font-size="1.0mm" x="18.0mm" y="36.5mm">F#5</text><line stroke="rgb(0%,0%,0%)" stroke-width=".1mm" x1="20.0mm" x2="277.0mm" y1="38.0mm" y2="38.0mm" /><text fill="red" font-size="1.0mm" x="18.0mm" y="38.5mm">F5</text><line stroke="rgb(0%,0%,0%)" stroke-width=".1mm" x1="20.0mm" x2="277.0mm" y1="40.0mm" y2="40.0mm" /><text fill="red" font-size="1.0mm" x="18.0mm" y="40.5mm">E5</text><line stroke="rgb(0%,0%,0%)" stroke-width=".1mm" x1="20.0mm" x2="277.0mm" y1="42.0mm" y2="42.0mm" /><text fill="red" font-size="1.0mm" x="18.0mm" y="42.5mm">D#5</text><line stroke="rgb(0%,0%,0%)" stroke-width=".1mm" x1="20.0mm" x2="277.0mm" y1="44.0mm" y2="44.0mm" /><text fill="red" font-size="1.0mm" x="18.0mm" y="44.5mm">D5</text><line stroke="rgb(0%,0%,0%)" stroke-width=".1mm" x1="20.0mm" x2="277.0mm" y1="46.0mm" y2="46.0mm" /><text fill="red" font-size="1.0mm" x="18.0mm" y="46.5mm">C#5</text><line stroke="rgb(0%,0%,0%)" stroke-width=".1mm" x1="20.0mm" x2="277.0mm" y1="48.0mm" y2="48.0mm" /><text fill="red" font-size="1.0mm" x="18.0mm" y="48.5mm">C5</text><line stroke="rgb(0%,0%,0%)" stroke-width=".1mm" x1="20.0mm" x2="277.0mm" y1="50.0mm" y2="50.0mm" /><text fill="red" font-size="1.0mm" x="18.0mm" y="50.5mm">B4</text><line stroke="rgb(0%,0%,0%)" stroke-width=".1mm" x1="20.0mm" x2="277.0mm" y1="52.0mm" y2="52.0mm" /><text fill="red" font-size="1.0mm" x="18.0mm" y="52.5mm">A#4</text><line stroke="rgb(0%,0%,0%)" stroke-width=".1mm" x1="20.0mm" x2="277.0mm" y1="54.0mm" y2="54.0mm" /><text fill="red" font-size="1.0mm" x="18.0mm" y="54.5mm">A4</text><line stroke="rgb(0%,0%,0%)" stroke-width=".1mm" x1="20.0mm" x2="277.0mm" y1="56.0mm" y2="56.0mm" /><text fill="red" font-size="1.0mm" x="18.0mm" y="56.5mm">G#4</text><line stroke="rgb(0%,0%,0%)" stroke-width=".1mm" x1="20.0mm" x2="277.0mm" y1="58.0mm" y2="58.0mm" /><text fill="red" font-size="1.0mm" x="18.0mm" y="58.5mm">G4</text><line stroke="rgb(0%,0%,0%)" stroke-width=".1mm" x1="20.0mm" x2="277.0mm" y1="60.0mm" y2="60.0mm" /><text fill="red" font-size="1.0mm" x="18.0mm" y="60.5mm">F#4</text><line stroke="rgb(0%,0%,0%)" stroke-width=".1mm" x1="20.0mm" x2="277.0mm" y1="62.0mm" y2="62.0mm" /><text fill="red" font-size="1.0mm" x="18.0mm" y="62.5mm">F4</text><line stroke="rgb(0%,0%,0%)" stroke-width=".1mm" x1="20.0mm" x2="277.0mm" y1="64.0mm" y2="64.0mm" /><text fill="red" font-size="1.0mm" x="18.0mm" y="64.5mm">E4</text><line stroke="rgb(0%,0%,0%)" stroke-width=".1mm" x1="20.0mm" x2="277.0mm" y1="66.0mm" y2="66.0mm" /><text fill="red" font-size="1.0mm" x="18.0mm" y="66.5mm">D4</text><line stroke="rgb(0%,0%,0%)" stroke-width=".1mm" x1="20.0mm" x2="277.0mm" y1="68.0mm" y2="68.0mm" /><text fill="red" font-size="1.0mm" x="18.0mm" y="68.5mm">C4</text><line stroke="rgb(0%,0%,0%)" stroke-width=".1mm" x1="20.0mm" x2="277.0mm" y1="70.0mm" y2="70.0mm" /><text fill="red" font-size="1.0mm" x="18.0mm" y="70.5mm">B3</text><line stroke="rgb(0%,0%,0%)" stroke-width=".1mm" x1="20.0mm" x2="277.0mm" y1="72.0mm" y2="72.0mm" /><text fill="red" font-size="1.0mm" x="18.0mm" y="72.5mm">A3</text><line stroke="rgb(0%,0%,0%)" stroke-width=".1mm" x1="20.0mm" x2="277.0mm" y1="74.0mm" y2="74.0mm" /><text fill="red" font-size="1.0mm" x="18.0mm" y="74.5mm">G3</text><line stroke="rgb(0%,0%,0%)" stroke-width=".1mm" x1="20.0mm" x2="277.0mm" y1="76.0mm" y2="76.0mm" /><text fill="red" font-size="1.0mm" x="18.0mm" y="76.5mm">D3</text><line stroke="rgb(0%,0%,0%)" stroke-width=".1mm" x1="20.0mm" x2="277.0mm" y1="78.0mm" y2="78.0mm" /><text fill="red" font-size="1.0mm" x="18.0mm" y="78.5mm">C3</text><circle cx="20.0mm" cy="26.0mm" fill="black" r="1mm" /><circle cx="20.0mm" cy="58.0mm" fill="black" r="1mm" /><circle cx="20.0mm" cy="44.0mm" fill="black" r="1mm" /><circle cx="28.2285714286mm" cy="24.0mm" fill="black" r="1mm" /><circle cx="28.2285714286mm" cy="54.0mm" fill="black" r="1mm" /><circle cx="30.9714285714mm" cy="26.0mm" fill="black" r="1mm" /><circle cx="30.9714285714mm" cy="58.0mm" fill="black" r="1mm" /><circle cx="30.9714285714mm" cy="44.0mm" fill="black" r="1mm" /><circle cx="36.4571428571mm" cy="22.0mm" fill="black" r="1mm" /><circle cx="36.4571428571mm" cy="44.0mm" fill="black" r="1mm" /><circle cx="36.4571428571mm" cy="50.0mm" fill="black" r="1mm" /><circle cx="47.4285714286mm" cy="22.0mm" fill="black" r="1mm" /><circle cx="47.4285714286mm" cy="50.0mm" fill="black" r="1mm" /><circle cx="47.4285714286mm" cy="44.0mm" fill="black" r="1mm" /><circle cx="52.9142857143mm" cy="30.0mm" fill="black" r="1mm" /><circle cx="52.9142857143mm" cy="60.0mm" fill="black" r="1mm" /><circle cx="52.9142857143mm" cy="44.0mm" fill="black" r="1mm" /><circle cx="61.1428571429mm" cy="26.0mm" fill="black" r="1mm" /><circle cx="61.1428571429mm" cy="58.0mm" fill="black" r="1mm" /><circle cx="63.8857142857mm" cy="30.0mm" fill="black" r="1mm" /><circle cx="63.8857142857mm" cy="60.0mm" fill="black" r="1mm" /><circle cx="63.8857142857mm" cy="44.0mm" fill="black" r="1mm" /><circle cx="69.3714285714mm" cy="24.0mm" fill="black" r="1mm" /><circle cx="69.3714285714mm" cy="44.0mm" fill="black" r="1mm" /><circle cx="69.3714285714mm" cy="54.0mm" fill="black" r="1mm" /><circle cx="80.3428571429mm" cy="24.0mm" fill="black" r="1mm" /><circle cx="80.3428571429mm" cy="44.0mm" fill="black" r="1mm" /><circle cx="80.3428571429mm" cy="54.0mm" fill="black" r="1mm" /><circle cx="85.8285714286mm" cy="34.0mm" fill="black" r="1mm" /><circle cx="85.8285714286mm" cy="64.0mm" fill="black" r="1mm" /><circle cx="85.8285714286mm" cy="44.0mm" fill="black" r="1mm" /><circle cx="96.8mm" cy="34.0mm" fill="black" r="1mm" /><circle cx="96.8mm" cy="44.0mm" fill="black" r="1mm" /><circle cx="96.8mm" cy="64.0mm" fill="black" r="1mm" /><circle cx="102.285714286mm" cy="30.0mm" fill="black" r="1mm" /><circle cx="102.285714286mm" cy="60.0mm" fill="black" r="1mm" /><circle cx="102.285714286mm" cy="44.0mm" fill="black" r="1mm" /><circle cx="113.257142857mm" cy="30.0mm" fill="black" r="1mm" /><circle cx="113.257142857mm" cy="60.0mm" fill="black" r="1mm" /><circle cx="113.257142857mm" cy="44.0mm" fill="black" r="1mm" /><circle cx="118.742857143mm" cy="26.0mm" fill="black" r="1mm" /><circle cx="118.742857143mm" cy="44.0mm" fill="black" r="1mm" /><circle cx="118.742857143mm" cy="58.0mm" fill="black" r="1mm" /><circle cx="129.714285714mm" cy="30.0mm" fill="black" r="1mm" /><circle cx="129.714285714mm" cy="22.0mm" fill="black" r="1mm" /><circle cx="129.714285714mm" cy="68.0mm" fill="black" r="1mm" /><circle cx="132.457142857mm" cy="24.0mm" fill="black" r="1mm" /><circle cx="135.2mm" cy="26.0mm" fill="black" r="1mm" /><circle cx="135.2mm" cy="34.0mm" fill="black" r="1mm" /><circle cx="135.2mm" cy="66.0mm" fill="black" r="1mm" /><circle cx="146.171428571mm" cy="30.0mm" fill="black" r="1mm" /><circle cx="146.171428571mm" cy="36.0mm" fill="black" r="1mm" /><circle cx="151.657142857mm" cy="26.0mm" fill="black" r="1mm" /><circle cx="151.657142857mm" cy="44.0mm" fill="black" r="1mm" /><circle cx="151.657142857mm" cy="58.0mm" fill="black" r="1mm" /><circle cx="159.885714286mm" cy="24.0mm" fill="black" r="1mm" /><circle cx="159.885714286mm" cy="54.0mm" fill="black" r="1mm" /><circle cx="162.628571429mm" cy="26.0mm" fill="black" r="1mm" /><circle cx="162.628571429mm" cy="44.0mm" fill="black" r="1mm" /><circle cx="162.628571429mm" cy="58.0mm" fill="black" r="1mm" /><circle cx="168.114285714mm" cy="22.0mm" fill="black" r="1mm" /><circle cx="168.114285714mm" cy="50.0mm" fill="black" r="1mm" /><circle cx="168.114285714mm" cy="44.0mm" fill="black" r="1mm" /><circle cx="179.085714286mm" cy="22.0mm" fill="black" r="1mm" /><circle cx="179.085714286mm" cy="44.0mm" fill="black" r="1mm" /><circle cx="179.085714286mm" cy="50.0mm" fill="black" r="1mm" /><circle cx="184.571428571mm" cy="30.0mm" fill="black" r="1mm" /><circle cx="184.571428571mm" cy="60.0mm" fill="black" r="1mm" /><circle cx="184.571428571mm" cy="44.0mm" fill="black" r="1mm" /><circle cx="192.8mm" cy="26.0mm" fill="black" r="1mm" /><circle cx="192.8mm" cy="58.0mm" fill="black" r="1mm" /><circle cx="195.542857143mm" cy="30.0mm" fill="black" r="1mm" /><circle cx="195.542857143mm" cy="44.0mm" fill="black" r="1mm" /><circle cx="195.542857143mm" cy="60.0mm" fill="black" r="1mm" /><circle cx="201.028571429mm" cy="24.0mm" fill="black" r="1mm" /><circle cx="201.028571429mm" cy="54.0mm" fill="black" r="1mm" /><circle cx="201.028571429mm" cy="44.0mm" fill="black" r="1mm" /><circle cx="212.0mm" cy="24.0mm" fill="black" r="1mm" /><circle cx="212.0mm" cy="44.0mm" fill="black" r="1mm" /><circle cx="212.0mm" cy="54.0mm" fill="black" r="1mm" /><circle cx="217.485714286mm" cy="34.0mm" fill="black" r="1mm" /><circle cx="217.485714286mm" cy="44.0mm" fill="black" r="1mm" /><circle cx="217.485714286mm" cy="64.0mm" fill="black" r="1mm" /><circle cx="228.457142857mm" cy="30.0mm" fill="black" r="1mm" /><circle cx="228.457142857mm" cy="60.0mm" fill="black" r="1mm" /><circle cx="228.457142857mm" cy="44.0mm" fill="black" r="1mm" /><circle cx="233.942857143mm" cy="26.0mm" fill="black" r="1mm" /><circle cx="233.942857143mm" cy="58.0mm" fill="black" r="1mm" /><circle cx="233.942857143mm" cy="44.0mm" fill="black" r="1mm" /><circle cx="244.914285714mm" cy="30.0mm" fill="black" r="1mm" /><circle cx="244.914285714mm" cy="24.0mm" fill="black" r="1mm" /><circle cx="244.914285714mm" cy="40.0mm" fill="black" r="1mm" /><circle cx="244.914285714mm" cy="68.0mm" fill="black" r="1mm" /><circle cx="250.4mm" cy="44.0mm" fill="black" r="1mm" /><circle cx="250.4mm" cy="26.0mm" fill="black" r="1mm" /><circle cx="250.4mm" cy="34.0mm" fill="black" r="1mm" /><circle cx="250.4mm" cy="66.0mm" fill="black" r="1mm" /><circle cx="261.371428571mm" cy="36.0mm" fill="black" r="1mm" /><circle cx="261.371428571mm" cy="48.0mm" fill="black" r="1mm" /><circle cx="261.371428571mm" cy="30.0mm" fill="black" r="1mm" /><circle cx="261.371428571mm" cy="44.0mm" fill="black" r="1mm" /><circle cx="261.371428571mm" cy="76.0mm" fill="black" r="1mm" /><circle cx="266.857142857mm" cy="34.0mm" fill="black" r="1mm" /><circle cx="266.857142857mm" cy="44.0mm" fill="black" r="1mm" /><circle cx="266.857142857mm" cy="50.0mm" fill="black" r="1mm" /><circle cx="266.857142857mm" cy="74.0mm" fill="black" r="1mm" /><line stroke="rgb(0%,0%,0%)" stroke-width=".1mm" x1="274.5mm" x2="279.5mm" y1="92.0mm" y2="92.0mm" /><line stroke="rgb(0%,0%,0%)" stroke-width=".1mm" x1="277.0mm" x2="277.0mm" y1="89.5mm" y2="94.5mm" /><line stroke="rgb(0%,0%,0%)" stroke-width=".1mm" x1="274.5mm" x2="279.5mm" y1="162.0mm" y2="162.0mm" /><line stroke="rgb(0%,0%,0%)" stroke-width=".1mm" x1="277.0mm" x2="277.0mm" y1="159.5mm" y2="164.5mm" /><line stroke="rgb(0%,0%,0%)" stroke-width=".1mm" x1="17.5mm" x2="22.5mm" y1="92.0mm" y2="92.0mm" /><line stroke="rgb(0%,0%,0%)" stroke-width=".1mm" x1="20.0mm" x2="20.0mm" y1="89.5mm" y2="94.5mm" /><line stroke="rgb(0%,0%,0%)" stroke-width=".1mm" x1="17.5mm" x2="22.5mm" y1="162.0mm" y2="162.0mm" /><line stroke="rgb(0%,0%,0%)" stroke-width=".1mm" x1="20.0mm" x2="20.0mm" y1="159.5mm" y2="164.5mm" /><text fill="blue" font-size="1.0mm" x="40.0mm" y="162.0mm">STAVE 1 - Mozart 331</text><line stroke="rgb(0%,0%,0%)" stroke-width=".1mm" x1="20.0mm" x2="277.0mm" y1="98.0mm" y2="98.0mm" /><text fill="red" font-size="1.0mm" x="18.0mm" y="98.5mm">E6</text><line stroke="rgb(0%,0%,0%)" stroke-width=".1mm" x1="20.0mm" x2="277.0mm" y1="100.0mm" y2="100.0mm" /><text fill="red" font-size="1.0mm" x="18.0mm" y="100.5mm">D6</text><line stroke="rgb(0%,0%,0%)" stroke-width=".1mm" x1="20.0mm" x2="277.0mm" y1="102.0mm" y2="102.0mm" /><text fill="red" font-size="1.0mm" x="18.0mm" y="102.5mm">C6</text><line stroke="rgb(0%,0%,0%)" stroke-width=".1mm" x1="20.0mm" x2="277.0mm" y1="104.0mm" y2="104.0mm" /><text fill="red" font-size="1.0mm" x="18.0mm" y="104.5mm">B5</text><line stroke="rgb(0%,0%,0%)" stroke-width=".1mm" x1="20.0mm" x2="277.0mm" y1="106.0mm" y2="106.0mm" /><text fill="red" font-size="1.0mm" x="18.0mm" y="106.5mm">A#5</text><line stroke="rgb(0%,0%,0%)" stroke-width=".1mm" x1="20.0mm" x2="277.0mm" y1="108.0mm" y2="108.0mm" /><text fill="red" font-size="1.0mm" x="18.0mm" y="108.5mm">A5</text><line stroke="rgb(0%,0%,0%)" stroke-width=".1mm" x1="20.0mm" x2="277.0mm" y1="110.0mm" y2="110.0mm" /><text fill="red" font-size="1.0mm" x="18.0mm" y="110.5mm">G#5</text><line stroke="rgb(0%,0%,0%)" stroke-width=".1mm" x1="20.0mm" x2="277.0mm" y1="112.0mm" y2="112.0mm" /><text fill="red" font-size="1.0mm" x="18.0mm" y="112.5mm">G5</text><line stroke="rgb(0%,0%,0%)" stroke-width=".1mm" x1="20.0mm" x2="277.0mm" y1="114.0mm" y2="114.0mm" /><text fill="red" font-size="1.0mm" x="18.0mm" y="114.5mm">F#5</text><line stroke="rgb(0%,0%,0%)" stroke-width=".1mm" x1="20.0mm" x2="277.0mm" y1="116.0mm" y2="116.0mm" /><text fill="red" font-size="1.0mm" x="18.0mm" y="116.5mm">F5</text><line stroke="rgb(0%,0%,0%)" stroke-width=".1mm" x1="20.0mm" x2="277.0mm" y1="118.0mm" y2="118.0mm" /><text fill="red" font-size="1.0mm" x="18.0mm" y="118.5mm">E5</text><line stroke="rgb(0%,0%,0%)" stroke-width=".1mm" x1="20.0mm" x2="277.0mm" y1="120.0mm" y2="120.0mm" /><text fill="red" font-size="1.0mm" x="18.0mm" y="120.5mm">D#5</text><line stroke="rgb(0%,0%,0%)" stroke-width=".1mm" x1="20.0mm" x2="277.0mm" y1="122.0mm" y2="122.0mm" /><text fill="red" font-size="1.0mm" x="18.0mm" y="122.5mm">D5</text><line stroke="rgb(0%,0%,0%)" stroke-width=".1mm" x1="20.0mm" x2="277.0mm" y1="124.0mm" y2="124.0mm" /><text fill="red" font-size="1.0mm" x="18.0mm" y="124.5mm">C#5</text><line stroke="rgb(0%,0%,0%)" stroke-width=".1mm" x1="20.0mm" x2="277.0mm" y1="126.0mm" y2="126.0mm" /><text fill="red" font-size="1.0mm" x="18.0mm" y="126.5mm">C5</text><line stroke="rgb(0%,0%,0%)" stroke-width=".1mm" x1="20.0mm" x2="277.0mm" y1="128.0mm" y2="128.0mm" /><text fill="red" font-size="1.0mm" x="18.0mm" y="128.5mm">B4</text><line stroke="rgb(0%,0%,0%)" stroke-width=".1mm" x1="20.0mm" x2="277.0mm" y1="130.0mm" y2="130.0mm" /><text fill="red" font-size="1.0mm" x="18.0mm" y="130.5mm">A#4</text><line stroke="rgb(0%,0%,0%)" stroke-width=".1mm" x1="20.0mm" x2="277.0mm" y1="132.0mm" y2="132.0mm" /><text fill="red" font-size="1.0mm" x="18.0mm" y="132.5mm">A4</text><line stroke="rgb(0%,0%,0%)" stroke-width=".1mm" x1="20.0mm" x2="277.0mm" y1="134.0mm" y2="134.0mm" /><text fill="red" font-size="1.0mm" x="18.0mm" y="134.5mm">G#4</text><line stroke="rgb(0%,0%,0%)" stroke-width=".1mm" x1="20.0mm" x2="277.0mm" y1="136.0mm" y2="136.0mm" /><text fill="red" font-size="1.0mm" x="18.0mm" y="136.5mm">G4</text><line stroke="rgb(0%,0%,0%)" stroke-width=".1mm" x1="20.0mm" x2="277.0mm" y1="138.0mm" y2="138.0mm" /><text fill="red" font-size="1.0mm" x="18.0mm" y="138.5mm">F#4</text><line stroke="rgb(0%,0%,0%)" stroke-width=".1mm" x1="20.0mm" x2="277.0mm" y1="140.0mm" y2="140.0mm" /><text fill="red" font-size="1.0mm" x="18.0mm" y="140.5mm">F4</text><line stroke="rgb(0%,0%,0%)" stroke-width=".1mm" x1="20.0mm" x2="277.0mm" y1="142.0mm" y2="142.0mm" /><text fill="red" font-size="1.0mm" x="18.0mm" y="142.5mm">E4</text><line stroke="rgb(0%,0%,0%)" stroke-width=".1mm" x1="20.0mm" x2="277.0mm" y1="144.0mm" y2="144.0mm" /><text fill="red" font-size="1.0mm" x="18.0mm" y="144.5mm">D4</text><line stroke="rgb(0%,0%,0%)" stroke-width=".1mm" x1="20.0mm" x2="277.0mm" y1="146.0mm" y2="146.0mm" /><text fill="red" font-size="1.0mm" x="18.0mm" y="146.5mm">C4</text><line stroke="rgb(0%,0%,0%)" stroke-width=".1mm" x1="20.0mm" x2="277.0mm" y1="148.0mm" y2="148.0mm" /><text fill="red" font-size="1.0mm" x="18.0mm" y="148.5mm">B3</text><line stroke="rgb(0%,0%,0%)" stroke-width=".1mm" x1="20.0mm" x2="277.0mm" y1="150.0mm" y2="150.0mm" /><text fill="red" font-size="1.0mm" x="18.0mm" y="150.5mm">A3</text><line stroke="rgb(0%,0%,0%)" stroke-width=".1mm" x1="20.0mm" x2="277.0mm" y1="152.0mm" y2="152.0mm" /><text fill="red" font-size="1.0mm" x="18.0mm" y="152.5mm">G3</text><line stroke="rgb(0%,0%,0%)" stroke-width=".1mm" x1="20.0mm" x2="277.0mm" y1="154.0mm" y2="154.0mm" /><text fill="red" font-size="1.0mm" x="18.0mm" y="154.5mm">D3</text><line stroke="rgb(0%,0%,0%)" stroke-width=".1mm" x1="20.0mm" x2="277.0mm" y1="156.0mm" y2="156.0mm" /><text fill="red" font-size="1.0mm" x="18.0mm" y="156.5mm">C3</text><circle cx="26.3142857143mm" cy="104.0mm" fill="black" r="1mm" /><circle cx="26.3142857143mm" cy="136.0mm" fill="black" r="1mm" /><circle cx="26.3142857143mm" cy="122.0mm" fill="black" r="1mm" /><circle cx="34.5428571429mm" cy="102.0mm" fill="black" r="1mm" /><circle cx="34.5428571429mm" cy="132.0mm" fill="black" r="1mm" /><circle cx="37.2857142857mm" cy="104.0mm" fill="black" r="1mm" /><circle cx="37.2857142857mm" cy="136.0mm" fill="black" r="1mm" /><circle cx="37.2857142857mm" cy="122.0mm" fill="black" r="1mm" /><circle cx="42.7714285714mm" cy="100.0mm" fill="black" r="1mm" /><circle cx="42.7714285714mm" cy="122.0mm" fill="black" r="1mm" /><circle cx="42.7714285714mm" cy="128.0mm" fill="black" r="1mm" /><circle cx="53.7428571429mm" cy="100.0mm" fill="black" r="1mm" /><circle cx="53.7428571429mm" cy="122.0mm" fill="black" r="1mm" /><circle cx="53.7428571429mm" cy="128.0mm" fill="black" r="1mm" /><circle cx="59.2285714286mm" cy="108.0mm" fill="black" r="1mm" /><circle cx="59.2285714286mm" cy="122.0mm" fill="black" r="1mm" /><circle cx="59.2285714286mm" cy="138.0mm" fill="black" r="1mm" /><circle cx="67.4571428571mm" cy="104.0mm" fill="black" r="1mm" /><circle cx="67.4571428571mm" cy="136.0mm" fill="black" r="1mm" /><circle cx="70.2mm" cy="108.0mm" fill="black" r="1mm" /><circle cx="70.2mm" cy="122.0mm" fill="black" r="1mm" /><circle cx="70.2mm" cy="138.0mm" fill="black" r="1mm" /><circle cx="75.6857142857mm" cy="102.0mm" fill="black" r="1mm" /><circle cx="75.6857142857mm" cy="132.0mm" fill="black" r="1mm" /><circle cx="75.6857142857mm" cy="122.0mm" fill="black" r="1mm" /><circle cx="86.6571428571mm" cy="102.0mm" fill="black" r="1mm" /><circle cx="86.6571428571mm" cy="122.0mm" fill="black" r="1mm" /><circle cx="86.6571428571mm" cy="132.0mm" fill="black" r="1mm" /><circle cx="92.1428571429mm" cy="112.0mm" fill="black" r="1mm" /><circle cx="92.1428571429mm" cy="122.0mm" fill="black" r="1mm" /><circle cx="92.1428571429mm" cy="142.0mm" fill="black" r="1mm" /><circle cx="103.114285714mm" cy="112.0mm" fill="black" r="1mm" /><circle cx="103.114285714mm" cy="142.0mm" fill="black" r="1mm" /><circle cx="103.114285714mm" cy="122.0mm" fill="black" r="1mm" /><circle cx="108.6mm" cy="108.0mm" fill="black" r="1mm" /><circle cx="108.6mm" cy="122.0mm" fill="black" r="1mm" /><circle cx="108.6mm" cy="138.0mm" fill="black" r="1mm" /><circle cx="119.571428571mm" cy="108.0mm" fill="black" r="1mm" /><circle cx="119.571428571mm" cy="122.0mm" fill="black" r="1mm" /><circle cx="119.571428571mm" cy="138.0mm" fill="black" r="1mm" /><circle cx="125.057142857mm" cy="104.0mm" fill="black" r="1mm" /><circle cx="125.057142857mm" cy="136.0mm" fill="black" r="1mm" /><circle cx="125.057142857mm" cy="122.0mm" fill="black" r="1mm" /><circle cx="136.028571429mm" cy="108.0mm" fill="black" r="1mm" /><circle cx="136.028571429mm" cy="100.0mm" fill="black" r="1mm" /><circle cx="136.028571429mm" cy="146.0mm" fill="black" r="1mm" /><circle cx="138.771428571mm" cy="102.0mm" fill="black" r="1mm" /><circle cx="141.514285714mm" cy="104.0mm" fill="black" r="1mm" /><circle cx="141.514285714mm" cy="112.0mm" fill="black" r="1mm" /><circle cx="141.514285714mm" cy="144.0mm" fill="black" r="1mm" /><circle cx="152.485714286mm" cy="108.0mm" fill="black" r="1mm" /><circle cx="152.485714286mm" cy="114.0mm" fill="black" r="1mm" /><circle cx="157.971428571mm" cy="104.0mm" fill="black" r="1mm" /><circle cx="157.971428571mm" cy="136.0mm" fill="black" r="1mm" /><circle cx="157.971428571mm" cy="122.0mm" fill="black" r="1mm" /><circle cx="166.2mm" cy="102.0mm" fill="black" r="1mm" /><circle cx="166.2mm" cy="132.0mm" fill="black" r="1mm" /><circle cx="168.942857143mm" cy="104.0mm" fill="black" r="1mm" /><circle cx="168.942857143mm" cy="122.0mm" fill="black" r="1mm" /><circle cx="168.942857143mm" cy="136.0mm" fill="black" r="1mm" /><circle cx="174.428571429mm" cy="100.0mm" fill="black" r="1mm" /><circle cx="174.428571429mm" cy="128.0mm" fill="black" r="1mm" /><circle cx="174.428571429mm" cy="122.0mm" fill="black" r="1mm" /><circle cx="185.4mm" cy="100.0mm" fill="black" r="1mm" /><circle cx="185.4mm" cy="128.0mm" fill="black" r="1mm" /><circle cx="185.4mm" cy="122.0mm" fill="black" r="1mm" /><circle cx="190.885714286mm" cy="108.0mm" fill="black" r="1mm" /><circle cx="190.885714286mm" cy="122.0mm" fill="black" r="1mm" /><circle cx="190.885714286mm" cy="138.0mm" fill="black" r="1mm" /><circle cx="199.114285714mm" cy="104.0mm" fill="black" r="1mm" /><circle cx="199.114285714mm" cy="136.0mm" fill="black" r="1mm" /><circle cx="201.857142857mm" cy="108.0mm" fill="black" r="1mm" /><circle cx="201.857142857mm" cy="122.0mm" fill="black" r="1mm" /><circle cx="201.857142857mm" cy="138.0mm" fill="black" r="1mm" /><circle cx="207.342857143mm" cy="102.0mm" fill="black" r="1mm" /><circle cx="207.342857143mm" cy="132.0mm" fill="black" r="1mm" /><circle cx="207.342857143mm" cy="122.0mm" fill="black" r="1mm" /><circle cx="218.314285714mm" cy="102.0mm" fill="black" r="1mm" /><circle cx="218.314285714mm" cy="132.0mm" fill="black" r="1mm" /><circle cx="218.314285714mm" cy="122.0mm" fill="black" r="1mm" /><circle cx="223.8mm" cy="112.0mm" fill="black" r="1mm" /><circle cx="223.8mm" cy="122.0mm" fill="black" r="1mm" /><circle cx="223.8mm" cy="142.0mm" fill="black" r="1mm" /><circle cx="234.771428571mm" cy="108.0mm" fill="black" r="1mm" /><circle cx="234.771428571mm" cy="122.0mm" fill="black" r="1mm" /><circle cx="234.771428571mm" cy="138.0mm" fill="black" r="1mm" /><circle cx="240.257142857mm" cy="104.0mm" fill="black" r="1mm" /><circle cx="240.257142857mm" cy="136.0mm" fill="black" r="1mm" /><circle cx="240.257142857mm" cy="122.0mm" fill="black" r="1mm" /><circle cx="251.228571429mm" cy="118.0mm" fill="black" r="1mm" /><circle cx="251.228571429mm" cy="102.0mm" fill="black" r="1mm" /><circle cx="251.228571429mm" cy="108.0mm" fill="black" r="1mm" /><circle cx="251.228571429mm" cy="146.0mm" fill="black" r="1mm" /><circle cx="256.714285714mm" cy="104.0mm" fill="black" r="1mm" /><circle cx="256.714285714mm" cy="122.0mm" fill="black" r="1mm" /><circle cx="256.714285714mm" cy="112.0mm" fill="black" r="1mm" /><circle cx="256.714285714mm" cy="144.0mm" fill="black" r="1mm" /><circle cx="267.685714286mm" cy="122.0mm" fill="black" r="1mm" /><circle cx="267.685714286mm" cy="114.0mm" fill="black" r="1mm" /><circle cx="267.685714286mm" cy="126.0mm" fill="black" r="1mm" /><circle cx="267.685714286mm" cy="108.0mm" fill="black" r="1mm" /><circle cx="267.685714286mm" cy="154.0mm" fill="black" r="1mm" /><circle cx="273.171428571mm" cy="112.0mm" fill="black" r="1mm" /><circle cx="273.171428571mm" cy="122.0mm" fill="black" r="1mm" /><circle cx="273.171428571mm" cy="128.0mm" fill="black" r="1mm" /><circle cx="273.171428571mm" cy="152.0mm" fill="black" r="1mm" /></svg>
